<svg xmlns="http://www.w3.org/2000/svg" xmlns:xlink="http://www.w3.org/1999/xlink" width="24" height="24" viewBox="0 0 24 24">
  <defs>
    <path id="icon-user-b" d="M6.409713,-2.58960077e-16 L253.590287,2.58960077e-16 C255.819084,-1.50463262e-16 256.627299,0.232064028 257.442114,0.667831759 C258.256929,1.10359949 258.896401,1.74307093 259.332168,2.55788574 C259.767936,3.37270056 260,4.18091615 260,6.409713 L260,33.590287 C260,35.8190838 259.767936,36.6272994 259.332168,37.4421143 C258.896401,38.2569291 258.256929,38.8964005 257.442114,39.3321682 C256.627299,39.767936 255.819084,40 253.590287,40 L6.409713,40 C4.18091615,40 3.37270056,39.767936 2.55788574,39.3321682 C1.74307093,38.8964005 1.10359949,38.2569291 0.667831759,37.4421143 C0.232064028,36.6272994 1.00308841e-16,35.8190838 -1.72640051e-16,33.590287 L1.72640051e-16,6.409713 C-1.00308841e-16,4.18091615 0.232064028,3.37270056 0.667831759,2.55788574 C1.10359949,1.74307093 1.74307093,1.10359949 2.55788574,0.667831759 C3.37270056,0.232064028 4.18091615,1.50463262e-16 6.409713,-2.58960077e-16 Z"/>
    <filter id="icon-user-a" width="101.5%" height="110%" x="-.8%" y="-2.5%" filterUnits="objectBoundingBox">
      <feOffset dy="1" in="SourceAlpha" result="shadowOffsetOuter1"/>
      <feGaussianBlur in="shadowOffsetOuter1" result="shadowBlurOuter1" stdDeviation=".5"/>
      <feComposite in="shadowBlurOuter1" in2="SourceAlpha" operator="out" result="shadowBlurOuter1"/>
      <feColorMatrix in="shadowBlurOuter1" values="0 0 0 0 0   0 0 0 0 0   0 0 0 0 0  0 0 0 0.1 0"/>
    </filter>
  </defs>
  <g fill="none" fill-rule="evenodd" transform="translate(-8 -8)">
    <use fill="#000" filter="url(#icon-user-a)" xlink:href="#icon-user-b"/>
    <path fill="#FFF" stroke="#DFE1E6" stroke-linejoin="square" d="M6.409713,0.5 C4.45315379,0.5 3.63735729,0.657537572 2.79368517,1.10873836 C2.06600459,1.49790619 1.49790619,2.06600459 1.10873836,2.79368517 C0.657537572,3.63735729 0.5,4.45315379 0.5,6.409713 L0.5,33.590287 C0.5,35.5468462 0.657537572,36.3626427 1.10873836,37.2063148 C1.49790619,37.9339954 2.06600459,38.5020938 2.79368517,38.8912616 C3.63735729,39.3424624 4.45315379,39.5 6.409713,39.5 L253.590287,39.5 C255.546846,39.5 256.362643,39.3424624 257.206315,38.8912616 C257.933995,38.5020938 258.502094,37.9339954 258.891262,37.2063148 C259.342462,36.3626427 259.5,35.5468462 259.5,33.590287 L259.5,6.409713 C259.5,4.45315379 259.342462,3.63735729 258.891262,2.79368517 C258.502094,2.06600459 257.933995,1.49790619 257.206315,1.10873836 C256.362643,0.657537572 255.546846,0.5 253.590287,0.5 L6.409713,0.5 Z"/>
    <g stroke="#6E6F94" transform="translate(12 12)">
      <path stroke-linecap="round" stroke-linejoin="round" d="M8,9 C5.48977778,9 3.26311111,9.4785 1.8,9.89475 C0.72,10.203 0,11.06175 0,12.024 L0,15 C0,15 7.96266667,15 8,15"/>
      <path stroke-linecap="round" stroke-linejoin="round" d="M16,9 C13.4897778,9 11.2631111,9.4785 9.8,9.89475 C8.72,10.203 8,11.06175 8,12.024 L8,15 C8,15 15.9626667,15 16,15" transform="matrix(-1 0 0 1 24 0)"/>
      <path stroke-linecap="square" d="M8,9 L8,9 C5.7912,9 4,6.57075 4,4.5 L4,3.75 C4,1.67925 5.7912,0 8,0 L8,0 C10.2088,0 12,1.67925 12,3.75 L12,4.5 C12,6.57075 10.2088,9 8,9 Z"/>
    </g>
  </g>
</svg>
