<svg xmlns="http://www.w3.org/2000/svg" width="24" height="24" viewBox="0 0 24 24">
  <g fill="#4A4A4A">
    <path d="M24,14 C24.0005566,12.0936451 22.7980276,10.3944716 21,9.761 L21,9 C20.9999999,4.0294373 16.9705627,1.34110451e-07 12,1.34110451e-07 C7.0294373,1.3411045e-07 3.00000007,4.0294373 3,9 L3,9.761 C1.20370687,10.397621 0.00322245526,12.096731 0.00322245526,14.0025 C0.00322245526,15.908269 1.20370687,17.607379 3,18.244 C3.45906738,18.4063048 3.9683542,18.3356849 4.36593823,18.054593 C4.76352225,17.7735011 4.99993068,17.3169145 5,16.83 L5,9 C5,5.13400675 8.13400675,2 12,2 C15.8659932,2 19,5.13400675 19,9 L19,16.83 C19.0043421,17.2507136 19.185879,17.6500949 19.5,17.93 L19.5,18.5 C19.5,19.974 18.209,20.5 17,20.5 L15.222,20.5 C14.7693943,19.716064 13.8466781,19.3338624 12.9723111,19.5681483 C12.0979441,19.8024343 11.4899492,20.5947886 11.4899492,21.5 C11.4899492,22.4052114 12.0979441,23.1975657 12.9723111,23.4318517 C13.8466781,23.6661376 14.7693943,23.283936 15.222,22.5 L17,22.5 C19.65,22.5 21.5,20.855 21.5,18.5 L21.5,18.022 C23.0284292,17.2636911 23.996537,15.7061993 24,14 Z"/>
    <path d="M15.144,14.045 C15.2984369,13.8089031 15.5618803,13.6670201 15.844,13.668 C16.0052926,13.6675399 16.163165,13.7144843 16.298,13.803 C16.4834448,13.9236465 16.6132787,14.113108 16.6588651,14.3295964 C16.7044514,14.5460849 16.6620454,14.7718153 16.541,14.957 C15.541123,16.4922147 13.8331131,17.4181226 12.001,17.4181226 C10.1688869,17.4181226 8.46087703,16.4922147 7.461,14.957 C7.20915818,14.5704007 7.3184007,14.0528419 7.70500002,13.801 C8.09159933,13.5491582 8.60915815,13.6584007 8.861,14.045 C9.55277209,15.1090784 10.7358225,15.7510421 12.005,15.7510421 C13.2741775,15.7510421 14.4572279,15.1090784 15.149,14.045 L15.144,14.045 Z"/>
    <circle cx="8.667" cy="9.501" r="1.667"/>
    <circle cx="15.333" cy="9.501" r="1.667"/>
  </g>
</svg>
